<svg width="27" height="21" viewBox="0 0 27 21" fill="none" xmlns="http://www.w3.org/2000/svg">
<path fill-rule="evenodd" clip-rule="evenodd" d="M15.0556 8.2518C15.1532 8.40758 15.1913 8.60022 15.2764 8.77952C15.3674 8.97133 15.4386 9.1362 15.5593 9.30771C15.6032 9.44118 15.6037 9.35288 15.644 9.50113C15.5387 9.65572 14.2763 10.6204 14.0038 10.8467L11.7924 12.6305C11.0858 13.1958 10.4896 13.3878 9.67233 12.744C9.28727 12.4407 8.94032 12.1546 8.55125 11.8464L7.73527 11.1905C7.63387 11.1127 7.5443 11.0465 7.45299 10.968C7.26266 10.8045 7.09404 10.676 6.89827 10.5135C6.8013 10.433 6.70582 10.3633 6.6144 10.2926C6.49984 10.2042 6.45783 10.1213 6.31786 10.0835L5.71129 9.55564C5.49311 9.37447 5.28967 9.23971 5.07757 9.05377L1.27326 5.97686C1.67111 5.6206 1.803 5.50032 2.54489 5.50307L14.9234 5.50322C14.8732 5.6059 14.8386 5.93756 14.8386 6.1002L14.8326 6.83588L6.01883 6.83359C5.26981 6.83614 5.36053 7.47568 5.59008 7.67579L6.23934 8.20404C6.40658 8.33672 6.71512 8.64839 6.91137 8.73856C6.99095 8.87893 7.00892 8.84924 7.19862 9.01073L8.14532 9.79266L9.88818 11.241C10.3914 11.6747 10.8458 11.7408 11.3924 11.2796L13.1429 9.79536L14.3225 8.82692C14.3317 8.81835 14.3602 8.79151 14.3683 8.78383L14.4147 8.73851C14.4907 8.70363 14.6379 8.58501 14.7213 8.5114C14.8678 8.3822 14.8843 8.35634 15.0556 8.2518ZM0.934129 13.1336V9.26707V6.96078C1.18174 7.08951 4.28669 9.63818 4.72475 9.98344C4.82964 10.0661 4.88063 10.135 5.00253 10.1675C5.21464 10.4705 6.42661 11.2347 6.48743 11.4585C6.3429 11.4964 5.47752 12.2348 5.35229 12.3423L4.23438 13.2492C3.36889 13.8789 1.56014 15.461 0.934129 15.8729V13.1336ZM0.00153368 9.22658V13.0946V17.047C0.00153368 17.6277 0.00364733 18.2084 0.000529696 18.789C-0.00491295 19.7955 0.671561 20.5291 1.53879 20.8593C2.01193 21.0394 2.58954 20.9952 3.22326 20.9952H17.7212C19.2024 20.9952 19.8521 21.0888 20.6358 20.3186C21.4505 19.518 21.3245 18.918 21.3245 17.4156V14.5104V11.8333C22.0381 11.8333 23.1807 11.4557 23.656 11.2086C23.6352 10.9626 23.4577 10.6951 23.4017 10.459L22.6018 10.756C21.6903 11.0319 20.4992 11.1216 19.5552 10.9478C18.9789 10.8416 18.3339 10.6018 17.8985 10.3264C17.1867 9.87598 16.8362 9.3222 16.7038 9.26702C16.6722 9.12919 16.6123 9.06342 16.5421 8.95197C16.0314 8.14195 15.8983 7.28465 15.8983 6.26221C15.8983 5.39535 16.1203 4.63834 16.3796 4.00399C17.3241 2.00091 19.0743 0.838783 21.3669 0.838938C22.5139 0.839042 23.6968 1.09081 24.4729 1.82716C24.942 2.27219 25.0558 2.38287 25.3659 2.99059C25.5577 3.36647 25.6627 3.69128 25.7453 4.11705C25.7706 4.24776 25.7848 4.44539 25.818 4.59011C25.818 5.75816 25.7251 6.92932 24.8332 7.74245C24.4324 8.1079 23.6916 8.34088 23.3704 7.90773C22.9988 7.4069 23.3169 6.54326 23.3169 6.14183L23.9406 3.16869C23.173 2.76576 21.6334 2.65301 20.6406 2.95731C20.1326 3.11305 19.7101 3.30319 19.3254 3.58102C19.1411 3.71412 18.9519 3.85542 18.7909 4.01365C18.6151 4.18635 18.5037 4.37977 18.3149 4.54537C18.1896 4.81805 18.006 5.03322 17.8539 5.42536C17.5584 6.18772 17.4703 7.06849 17.7924 7.80708C18.2452 8.84534 19.5909 9.20732 20.7175 8.65499C21.7089 8.16889 22.0244 7.39662 22.2571 7.33557C22.2571 7.839 22.3135 8.0453 22.5406 8.34809C23.0264 8.99573 23.7445 9.00834 24.4677 8.79925C25.4616 8.51187 26.129 7.79856 26.5382 6.87704C26.6738 6.57155 26.7603 6.22146 26.8239 5.8667C26.8967 5.46071 26.8778 5.05316 26.8778 4.59011C26.8778 3.88698 26.6017 3.12789 26.3551 2.64341C25.8155 1.58282 24.8333 0.762162 23.6725 0.364733C20.7452 -0.637352 17.3721 0.480339 15.8111 3.04369C15.6845 3.2516 15.4583 3.6157 15.3897 3.86788C15.2543 4.09302 15.2052 4.35719 15.0929 4.587H2.75699C1.76485 4.587 1.17445 4.63574 0.522495 5.39037C0.346851 5.59371 0.238104 5.80893 0.128723 6.06178C0.0581266 6.30063 -0.000315763 6.38534 1.28393e-06 6.70942C0.000318331 6.98751 0.00153368 7.2657 0.00153368 7.54384C0.00153368 8.10473 0.00153368 8.66568 0.00153368 9.22658ZM6.95375 19.1628H14.3723V18.2466H6.95375V19.1628ZM15.8983 13.4591C16.024 13.6387 16.2599 13.7697 16.4385 13.9263C17.2633 14.6493 18.86 15.8824 19.7924 16.6284C19.8928 16.7087 19.9691 16.764 20.0772 16.8483C20.2307 16.9679 20.211 16.9866 20.3919 17.0806V17.4156C20.3919 18.6644 20.5396 19.3043 19.7322 19.8474C19.3529 20.1025 18.9536 20.0374 18.3571 20.0374H2.67218C1.9862 20.0374 1.82572 20.0403 1.41726 19.7293C0.701997 19.1849 1.00103 18.1185 0.926414 17.0806C1.11754 16.9681 1.2572 16.837 1.43311 16.6962C1.61494 16.5506 1.76548 16.4244 1.94604 16.2839L3.18062 15.2895C3.26696 15.2235 3.35119 15.1596 3.44129 15.0875L3.95342 14.6745C4.14408 14.5107 4.8755 13.9665 4.96132 13.8235C5.15001 13.7485 5.35551 13.5364 5.53634 13.3977C5.8137 13.1849 7.09098 12.0944 7.29288 12.0415C7.39793 12.1106 7.54864 12.2497 7.66468 12.3426L8.78602 13.2399C9.64754 13.9799 10.5469 14.4029 11.7304 13.819C12.2443 13.5654 13.5375 12.3675 14.0332 12.0415C14.3088 12.1138 15.6407 13.3867 15.8983 13.4591ZM20.3919 14.4281V15.8729C20.2208 15.7839 20.157 15.7051 20.0048 15.5867L18.4173 14.3144C18.247 14.1821 17.3685 13.4158 17.2158 13.3741L14.8386 11.4168C14.8806 11.3552 16.1265 10.3021 16.3223 10.2508C16.3808 10.4096 16.9296 10.8065 17.0605 10.8999C17.3229 11.0871 17.6807 11.2618 17.9892 11.4035C18.2891 11.5412 18.7405 11.6741 19.0802 11.7476C19.4914 11.8366 19.8902 11.8749 20.3919 11.8749V14.4281ZM19.7136 4.62848C20.2856 3.88973 21.2976 3.66922 22.209 3.75975C22.3438 3.77314 22.4927 3.82547 22.6386 3.83741L22.1989 6.0446C21.8709 6.76191 21.8645 6.90559 21.251 7.51321C20.8961 7.86465 20.1358 8.26887 19.4433 7.93436C18.8654 7.65529 18.7497 6.97718 18.8889 6.19224C18.976 5.7009 19.3916 4.79625 19.7136 4.62848Z" fill="darkorange"/>
</svg>
