<svg width="21" height="21" viewBox="0 0 21 21" fill="none" xmlns="http://www.w3.org/2000/svg">
<path fill-rule="evenodd" clip-rule="evenodd" d="M10.7427 16.4831C10.0037 16.3542 7.7749 14.7532 7.21663 14.1246C7.08166 13.9726 6.99295 13.8964 6.85748 13.7513C6.73649 13.6216 6.60306 13.522 6.49106 13.3866C5.93888 12.7193 4.9934 11.5106 4.68165 10.7307C5.36136 10.0058 6.55639 10.4092 6.1843 8.13426C5.98968 6.9444 5.68628 5.81297 5.41171 4.67791C5.24064 3.97079 5.1325 3.64832 4.65931 3.33127C3.18076 2.34056 1.46514 3.61444 0.708436 4.94437C-0.500625 7.06911 0.0112016 9.62032 0.952682 11.7048C1.81776 13.6201 3.33353 15.3751 4.57623 16.4688C6.52121 18.1804 12.1611 22.5977 16.1551 20.3995C18.317 19.2096 19.1802 16.1617 16.7307 15.5329C15.7033 15.2692 14.3638 14.9915 13.2804 14.849C12.6442 14.7653 11.8791 14.6834 11.5282 15.1115C11.3628 15.3133 10.8138 16.2485 10.7427 16.4831Z" fill="darkorange"/>
<path fill-rule="evenodd" clip-rule="evenodd" d="M9.98995 0.0447712C9.65872 0.180826 9.4488 0.618956 9.72496 0.988521C9.93125 1.2646 10.3943 1.23454 10.8258 1.29069C14.486 1.76714 17.2413 3.91629 18.8874 7.22068C19.4334 8.31644 19.624 9.29431 19.8394 10.4734C19.907 10.8438 20.2512 11.1801 20.7017 10.9638C21.5673 10.5481 20.3051 7.38189 19.9896 6.72308C18.4607 3.53086 15.8338 1.21307 12.4127 0.343439C11.9565 0.227454 10.3989 -0.123255 9.98995 0.0447712Z" fill="darkorange"/>
<path fill-rule="evenodd" clip-rule="evenodd" d="M9.94176 3.07218C9.41863 3.3309 9.51724 4.09761 10.0757 4.22321C10.7019 4.36398 11.1304 4.37401 11.7413 4.59296C12.7258 4.94577 13.6809 5.52686 14.2629 6.08602C14.9288 6.72578 15.4866 7.44129 15.9621 8.42444C16.4496 9.43255 16.554 10.5305 16.7077 10.7353C16.9114 11.0064 18.1404 11.4481 17.6137 9.48501C17.4681 8.94224 17.2946 8.43097 17.0815 7.96185C16.5808 6.85969 15.745 5.73363 14.9379 5.07207C14.3012 4.55012 13.9928 4.27236 13.1329 3.85169C12.6177 3.59965 10.5409 2.77585 9.94176 3.07218Z" fill="darkorange"/>
<path fill-rule="evenodd" clip-rule="evenodd" d="M14.4514 10.9229C14.4638 10.9207 14.5924 10.9958 14.6737 10.6503C14.8505 9.89933 13.8278 8.33043 13.4612 7.86425C12.6956 6.89068 10.2497 5.6413 9.69801 6.33362C9.5111 6.5682 9.51991 6.94174 9.71031 7.15709C9.87674 7.34528 10.2514 7.36465 10.5669 7.44642C10.8755 7.52642 11.1219 7.63013 11.3856 7.77001C13.3026 8.78686 13.3949 11.4454 14.2898 11.0577C14.4827 10.9741 14.3956 10.993 14.4514 10.9229Z" fill="darkorange"/>
</svg>
