<svg width="19" height="19" viewBox="0 0 19 19" fill="none" xmlns="http://www.w3.org/2000/svg">
<path d="M10.0871 15.6505C11.1366 15.0822 12.1339 14.4222 13.0673 13.6783C15.6294 11.6206 17.1038 9.29025 17.1 6.74425C17.0972 4.57445 15.4309 2.8483 13.4131 2.8502C12.4479 2.8502 11.5416 3.24635 10.8576 3.9503L9.49905 5.34395L8.13865 3.9541C7.80723 3.60922 7.40971 3.33465 6.96982 3.14678C6.52994 2.95891 6.05672 2.8616 5.5784 2.86065C3.56155 2.86255 1.8981 4.59535 1.9 6.7642C1.90285 9.30735 3.38105 11.6311 5.9432 13.6812C7.05011 14.5604 8.24603 15.3214 9.5114 15.9517C9.69285 15.8605 9.8857 15.7598 10.0871 15.6496V15.6505ZM9.4962 2.62505L9.68905 2.43505C10.6954 1.4847 12.0261 0.953704 13.4102 0.950199C16.4939 0.946399 18.9962 3.53895 19 6.74235C19.0095 14.103 9.5133 18.0502 9.5133 18.0502C9.5133 18.0502 0.00950244 14.1267 2.43857e-06 6.768C-0.00284756 3.5646 2.4928 0.963499 5.5765 0.959699C6.96031 0.960834 8.29179 1.48867 9.3005 2.436L9.49525 2.62505H9.4962Z" fill="#1B1B1C"/>
</svg>
